<?xml version="1.0" encoding="UTF-8" standalone="no"?>
<!-- Created with Inkscape (http://www.inkscape.org/) -->

<svg
   xmlns:dc="http://purl.org/dc/elements/1.1/"
   xmlns:cc="http://creativecommons.org/ns#"
   xmlns:rdf="http://www.w3.org/1999/02/22-rdf-syntax-ns#"
   xmlns:svg="http://www.w3.org/2000/svg"
   xmlns="http://www.w3.org/2000/svg"
   xmlns:sodipodi="http://sodipodi.sourceforge.net/DTD/sodipodi-0.dtd"
   xmlns:inkscape="http://www.inkscape.org/namespaces/inkscape"
   width="1000"
   height="965"
   viewBox="0 0 264.58333 255.32293"
   version="1.1"
   id="svg8"
   inkscape:version="0.92.4 (5da689c313, 2019-01-14)"
   sodipodi:docname="Anonymous Content (Symbol).svg">
  <defs
     id="defs2">
	
</defs>
  <sodipodi:namedview
     id="base"
     pagecolor="#ffffff"
     bordercolor="#666666"
     borderopacity="1.0"
     inkscape:pageopacity="0.0"
     inkscape:pageshadow="2"
     inkscape:zoom="0.7"
     inkscape:cx="476.98617"
     inkscape:cy="469.32322"
     inkscape:document-units="px"
     inkscape:current-layer="layer1"
     showgrid="false"
     units="px"
     inkscape:window-width="1920"
     inkscape:window-height="1017"
     inkscape:window-x="-8"
     inkscape:window-y="-8"
     inkscape:window-maximized="1" />
  <metadata
     id="metadata5">
    <rdf:RDF>
      <cc:Work
         rdf:about="">
        <dc:format>image/svg+xml</dc:format>
        <dc:type
           rdf:resource="http://purl.org/dc/dcmitype/StillImage" />
        <dc:title></dc:title>
      </cc:Work>
    </rdf:RDF>
  </metadata>
  <g
     inkscape:label="Layer 1"
     inkscape:groupmode="layer"
     id="layer1"
     transform="translate(0,-41.67707)">
    <path
       id="path94"
       d="m 130.22786,124.86744 z m 27.39665,161.00221 c -6.00483,1.12624 -11.63421,2.25177 -17.26373,4.12823 -3.00227,0.75036 -5.62937,1.87646 -8.63179,2.25177 -0.37588,0 -0.37588,0 -0.75034,0 -0.75036,0.3759 -1.50115,0.3759 -2.25179,0.3759 0,0 0,0 0,0 -0.37447,0 -0.37447,0 -0.75035,0 -1.12625,-0.3759 -1.87645,-1.8766 -2.25179,-2.62711 -1.12623,-2.6271 -1.12623,-5.25418 -2.25177,-7.88129 -1.12624,-2.25179 -1.50128,-4.87887 -2.25177,-7.50583 -0.75036,1.12624 -1.12626,2.25177 -2.25179,3.3776 -3.00241,3.7529 -6.00483,7.88129 -8.25661,12.00952 -0.37447,0.75037 -1.87646,3.37759 -4.12824,6.75534 h 58.92155 c 0,-0.3759 -0.37588,-0.75036 -0.37588,-0.75036 -2.25177,-4.12823 -4.50356,-7.13065 -7.50598,-10.13292 z M 132.10432,128.24519 c 0.37588,0 1.12624,0.37588 1.50113,0.37588 0.75036,0.37589 1.12626,0.37589 1.50129,0.75036 0.75036,0.37588 1.12624,0.75036 1.50113,1.50114 0.37589,0.37588 0.75036,0.75035 1.12625,1.12624 0.37588,0 0.37588,0 0.75035,0.37588 0,0 0.37589,0.3759 0.37589,0.3759 0.37588,0 0,-1.12626 0,-1.50129 -0.37589,-0.75036 -0.37589,-1.12624 -0.75036,-1.87646 -0.75036,-1.12624 -1.87646,-2.25177 -3.00227,-3.00241 -0.75036,-0.37588 -1.50129,-0.37588 -1.8766,-0.75037 -0.37588,-0.37587 -1.12624,-0.37587 -1.50113,-0.75034 -0.3759,0 -1.12626,-0.37589 -1.50115,0 0,0 0,0.75034 0,0.75034 0,0.3759 0,0.3759 0,0.75037 0,0.37589 -0.37589,1.12624 0,1.50128 0.37588,0.37588 1.12624,0.37588 1.87646,0.37588 z M 93.824089,41.551652 -2.124354e-7,296.75321 H 73.182769 c -0.37589,-0.75036 -0.75036,-1.12624 -1.12624,-1.12624 0.37447,-3.3776 3.00227,-5.25406 4.87873,-8.25648 2.25178,-4.12823 4.50356,-8.63179 7.50597,-12.38485 2.6271,-4.12823 5.2542,-8.25646 7.13066,-12.38469 1.50114,-3.00244 2.6271,-6.00471 4.50355,-8.6318 1.12625,-1.50129 1.87646,-3.00241 2.6271,-4.50356 0.75036,-1.12624 1.876461,-2.6271 2.251781,-3.75306 0,-0.75036 0,-1.87646 0,-2.62696 -0.37589,-0.37588 -0.75036,-0.75034 -0.75036,-1.50127 -0.375881,-0.3759 -1.126241,-0.3759 -1.876451,-0.75036 0,-1.50127 0.37588,-2.6271 0.75035,-4.12837 0,0 0,0 0,-0.3759 0,0 0,-0.37588 0,-0.37588 0,-0.3759 0,-0.3759 0,-0.75036 0,-1.12624 -0.37589,-1.87646 0,-2.6271 0,-0.37588 0,-1.12624 0,-1.50113 0,-4.12823 0.75036,-8.25648 1.501141,-12.38486 0.75036,-3.37758 0.75036,-7.1305 1.12624,-10.50825 0.37589,-3.00241 1.50128,-6.38 1.8766,-9.75775 1.12625,-6.38 2.62696,-12.76002 4.50356,-18.76471 0.37447,-1.50129 0,-3.37775 0.37447,-4.50357 0.37589,-0.75036 1.12624,-1.12624 1.50128,-1.87645 0.37588,-0.75037 0,-1.50127 0,-2.25178 0,-1.50128 0.37588,-2.6271 0,-3.75306 -0.37589,-1.50114 -0.75036,-2.25177 -0.75036,-3.75291 0.75036,-4.87888 0,-9.75776 0.75036,-14.63663 0.37588,-2.25177 1.12624,-4.87873 2.25178,-7.13051 0.37588,-1.12625 0.75035,-2.25179 1.50113,-3.00243 0.37589,-1.12624 1.50114,-1.87644 1.87646,-2.62709 0.37589,-1.12623 0,-2.25178 0.37589,-3.3776 0.37589,-1.50127 0.75036,-1.50127 1.87646,-2.25177 1.87646,-1.12624 3.37773,-3.00242 4.50356,-4.50356 1.12624,-1.87661 3.00242,-3.37773 4.87888,-4.87888 0.75034,-0.75034 1.87645,-1.50127 3.00241,-1.87646 0.37588,-0.37588 0.75036,-1.12624 1.50113,-1.12624 l -0.37588,-1.50113 c 0.75036,0.37588 1.87646,-1.12625 3.37773,-1.50128 1.87646,0 1.87646,0 2.25179,1.8766 0.37588,2.25177 1.50113,4.12823 3.75292,5.62937 1.87644,1.12624 3.7529,2.62709 4.87887,4.87888 0.75035,1.12624 1.87646,0.75036 2.62709,1.87646 0.75036,1.12624 2.25179,3.75292 2.6271,4.87887 4.12823,9.75775 4.87873,19.14005 4.50356,30.02376 0,2.62694 -0.37589,6.38 -0.37589,9.38227 0,3.00244 0.75036,5.25421 1.50114,7.88131 1.50113,5.25419 3.75292,12.00953 6.38001,21.39182 1.87646,6.38015 7.50597,17.26373 10.88358,25.52019 1.87646,0 3.75304,-0.37588 4.50354,-0.37588 1.12624,0 3.00242,-1.12625 4.12825,-0.75036 1.12624,0.37588 1.87659,2.62696 2.62709,3.75292 3.00241,4.87888 4.12823,10.50825 5.2542,15.76244 1.12624,6.00469 4.50355,12.00952 6.00469,18.01423 0.75037,2.25177 1.50127,4.87888 1.12624,7.13065 -0.37587,2.6271 -4.50356,3.00227 -6.38002,4.12823 -1.87644,0.75036 -3.7529,1.87646 -5.62936,2.6271 0.37588,0.75036 0.75035,1.12624 1.12624,1.87646 1.87646,3.00242 4.12823,4.87888 6.00469,7.88115 0.75036,1.12624 1.50115,2.62711 2.25178,3.75306 0.75036,1.12624 2.25179,2.25177 2.6271,3.75292 0,0.37588 0,0.75036 0,1.12624 h 67.17803 L 170.7593,41.550096 Z m 42.783781,66.802708 c -1.87646,2.25179 -2.62709,3.37774 -4.87888,5.62951 -2.25177,1.87646 -5.62936,4.12824 -7.88115,5.25419 -2.25177,1.50115 -3.75306,0.37448 -7.88129,0.75036 -5.62937,0 -7.50597,-3.37758 -7.50597,-9.0071 0,-1.12624 0,-2.25177 -0.37447,-3.00228 -0.37589,-1.12624 -2.25178,-1.8766 -1.8766,-2.6271 0.37589,-0.75036 1.8766,-1.50127 2.25178,-2.6271 0.37588,-1.12624 0.75035,-2.62709 0.75035,-3.752905 0.37589,-2.62711 1.12625,-4.50357 3.00242,-6.75534 1.12625,-1.50129 2.25178,-3.75306 4.50356,-5.62952 0,0 0,0 0,0 v 0 c 0,0 0,0 0,0 1.87646,-1.12625 4.87887,-1.12625 7.13065,-1.12625 2.6271,0 6.00469,-0.37588 8.63179,0.75036 4.50356,1.87646 6.75533,9.00712 6.75533,13.51067 -0.37588,3.002415 -0.75036,6.380025 -2.6271,8.631795 z"
       inkscape:connector-curvature="0"
       style="fill:#000000;stroke-width:3.7529633" />
  </g>
</svg>
